<?xml version="1.0" encoding="utf-8"?>
<!-- Generator: Adobe Illustrator 28.7.1, SVG Export Plug-In . SVG Version: 9.03 Build 54978)  -->
<svg version="1.1" id="圖層_1" xmlns="http://www.w3.org/2000/svg" xmlns:xlink="http://www.w3.org/1999/xlink" x="0px" y="0px"
	 width="200px" height="66px" viewBox="0 0 200 66" style="enable-background:new 0 0 200 66;" xml:space="preserve">
<style type="text/css">
	.st0{fill:#FFDDAA;}
	.st1{fill:#FF8800;}
</style>
<rect class="st0" width="200" height="66"/>
<g>
	<g>
		<path class="st1" d="M10.8,53.1c0-0.3,0-0.6-0.1-1c-0.5-2.8-2.1-4.1-3.8-4.4V18.4c1.7-0.2,3.3-1.6,3.8-4.4c0.1-0.3,0.1-0.6,0.1-1
			c0-1.5-0.6-3.1-1.6-4.2C8.3,8,7.2,7.5,5.9,7.6C5.3,7.7,4.8,7.9,4.3,8.4c-0.4,0.5-0.6,1-0.5,1.6c0.1,0.9,0.9,1.6,1.9,1.5
			c0.7-0.1,1.3-0.7,1.2-1.4c-0.1-0.6-0.5-1-1.1-1c-0.1,0-0.2,0.1-0.2,0.2C5.5,9.4,5.4,9.5,5.4,9.7c0,0.2,0.2,0.4,0.5,0.4
			c0.1,0,0.3-0.1,0.4-0.2c0,0.1,0.1,0.2,0.1,0.2c0,0.4-0.3,0.7-0.7,0.8C5,11,4.4,10.6,4.4,10c0-0.4,0.1-0.9,0.4-1.2
			C5.1,8.4,5.5,8.2,6,8.2c1.3-0.1,2.2,0.5,2.8,1.1c1.1,1.2,1.7,3.1,1.4,4.7c-0.6,3.3-2.7,4.2-4.3,3.9c-1.2-0.2-2.5-1.1-2.3-2.5
			c0.1-0.9,0.9-1.3,1.5-1.4c0.4-0.1,0.9,0,1.2,0.2c-0.1,0.1-0.1,0.2-0.1,0.3c0,0.2,0.2,0.4,0.5,0.4c0.2,0,0.4-0.2,0.5-0.4
			c0.1-0.1,0.1-0.2,0-0.3c-0.4-0.7-1.3-1-2.2-0.9c-1,0.2-1.8,0.9-1.9,1.9c-0.2,1.5,1,2.9,2.7,3.1c0.2,0,0.4,0,0.6,0v29.3
			c-0.2,0-0.4,0-0.6,0c-1.8,0.3-3,1.6-2.7,3.1c0.1,1,0.9,1.7,1.9,1.9c0.9,0.2,1.8-0.2,2.2-0.9c0.1-0.1,0-0.2,0-0.3
			c0-0.2-0.2-0.4-0.5-0.4c-0.3,0-0.5,0.2-0.5,0.4c0,0.1,0,0.2,0.1,0.3c-0.4,0.3-0.9,0.3-1.2,0.2c-0.6-0.1-1.3-0.5-1.5-1.4
			c-0.2-1.4,1-2.3,2.3-2.5c1.6-0.2,3.7,0.6,4.3,3.9c0.3,1.6-0.3,3.5-1.4,4.7c-0.5,0.6-1.5,1.2-2.8,1.1c-0.5,0-0.9-0.2-1.2-0.6
			c-0.3-0.3-0.4-0.8-0.4-1.2c0.1-0.6,0.6-1.1,1.3-1c0.4,0,0.7,0.4,0.7,0.8c0,0.1,0,0.2-0.1,0.2c-0.1-0.1-0.2-0.2-0.4-0.2
			c-0.3,0-0.5,0.2-0.5,0.4c0,0.1,0.1,0.3,0.2,0.3c0,0.1,0.1,0.2,0.2,0.2c0.6,0,1-0.4,1.1-1c0.1-0.7-0.5-1.3-1.2-1.4
			c-1-0.1-1.8,0.6-1.9,1.5c-0.1,0.6,0.1,1.2,0.5,1.6c0.4,0.4,1,0.7,1.6,0.8c1.2,0.1,2.4-0.3,3.3-1.3C10.2,56.3,10.8,54.7,10.8,53.1z
			 M194.2,47.6c-0.2,0-0.4,0-0.6,0V18.2c0.2,0,0.4,0,0.6,0c1.8-0.3,3-1.6,2.7-3.1c-0.1-1-0.9-1.7-1.9-1.9c-0.9-0.2-1.8,0.2-2.2,0.9
			c-0.1,0.1,0,0.2,0,0.3c0,0.2,0.2,0.4,0.5,0.4c0.3,0,0.5-0.2,0.5-0.4c0-0.1,0-0.2-0.1-0.3c0.4-0.3,0.9-0.3,1.2-0.2
			c0.6,0.1,1.3,0.5,1.5,1.4c0.2,1.4-1,2.3-2.3,2.5c-1.6,0.2-3.7-0.6-4.3-3.9c-0.3-1.6,0.3-3.5,1.4-4.7c0.5-0.6,1.5-1.2,2.8-1.1
			c0.5,0,0.9,0.2,1.2,0.6c0.3,0.3,0.4,0.8,0.4,1.2c-0.1,0.6-0.6,1.1-1.3,1c-0.4,0-0.7-0.4-0.7-0.8c0-0.1,0-0.2,0.1-0.2
			c0.1,0.1,0.2,0.2,0.4,0.2c0.3,0,0.5-0.2,0.5-0.4c0-0.1-0.1-0.3-0.2-0.3c0-0.1-0.1-0.2-0.2-0.2c-0.6,0-1,0.4-1.1,1
			c-0.1,0.7,0.5,1.3,1.2,1.4c1,0.1,1.8-0.6,1.9-1.5c0.1-0.6-0.1-1.2-0.5-1.6c-0.4-0.4-1-0.7-1.6-0.8c-1.2-0.1-2.4,0.3-3.3,1.3
			c-1,1.1-1.6,2.7-1.6,4.2c0,0.3,0,0.6,0.1,1c0.5,2.8,2.1,4.1,3.8,4.4v29.4c-1.7,0.2-3.3,1.6-3.8,4.4c-0.1,0.3-0.1,0.6-0.1,1
			c0,1.5,0.6,3.1,1.6,4.2c0.9,0.9,2,1.4,3.3,1.3c0.6-0.1,1.2-0.3,1.6-0.8c0.4-0.4,0.6-1,0.5-1.6c-0.1-0.9-0.9-1.6-1.9-1.5
			c-0.7,0.1-1.3,0.7-1.2,1.4c0.1,0.6,0.5,1,1.1,1c0.1,0,0.2-0.1,0.2-0.2c0.1-0.1,0.2-0.2,0.2-0.3c0-0.2-0.2-0.4-0.5-0.4
			c-0.1,0-0.3,0.1-0.4,0.2c0-0.1-0.1-0.2-0.1-0.2c0-0.4,0.3-0.7,0.7-0.8c0.6-0.1,1.2,0.4,1.3,1c0,0.4-0.1,0.9-0.4,1.2
			c-0.3,0.3-0.7,0.5-1.2,0.6c-1.3,0.1-2.2-0.5-2.8-1.1c-1.1-1.2-1.7-3.1-1.4-4.7c0.6-3.3,2.7-4.2,4.3-3.9c1.2,0.2,2.5,1.1,2.3,2.5
			c-0.1,0.9-0.9,1.3-1.5,1.4c-0.4,0.1-0.9,0-1.2-0.2c0.1-0.1,0.1-0.2,0.1-0.3c0-0.2-0.2-0.4-0.5-0.4c-0.2,0-0.4,0.2-0.5,0.4
			c-0.1,0.1-0.1,0.2,0,0.3c0.4,0.7,1.3,1,2.2,0.9c1-0.2,1.8-0.9,1.9-1.9C197.2,49.2,196,47.8,194.2,47.6z M14.2,9.9
			c0.3,0,0.7,0,1-0.1c3-0.5,4.3-2,4.6-3.6h160.7c0.3,1.6,1.6,3.2,4.6,3.6c0.3,0.1,0.7,0.1,1,0.1c1.6,0,3.3-0.6,4.4-1.6
			c1-0.9,1.5-1.9,1.4-3.1c-0.1-0.6-0.3-1.1-0.8-1.5c-0.5-0.4-1.1-0.6-1.7-0.5c-1,0.1-1.7,0.9-1.6,1.8c0.1,0.7,0.7,1.2,1.4,1.2
			c0.6,0,1-0.5,1-1c0-0.1-0.1-0.2-0.2-0.2c-0.1-0.1-0.2-0.2-0.4-0.2c-0.3,0-0.5,0.2-0.5,0.4c0,0.1,0.1,0.3,0.2,0.3
			c-0.1,0-0.2,0.1-0.3,0.1c-0.4,0-0.8-0.3-0.8-0.7c-0.1-0.6,0.4-1.2,1.1-1.2c0.5,0,0.9,0.1,1.3,0.4c0.4,0.3,0.6,0.7,0.6,1.1
			c0.1,1.2-0.6,2.1-1.2,2.6c-1.2,1.1-3.2,1.6-4.9,1.3c-3.4-0.6-4.4-2.6-4.1-4.1c0.2-1.2,1.2-2.3,2.6-2.1c0.9,0.1,1.4,0.8,1.5,1.4
			c0.1,0.4,0,0.8-0.3,1.2c-0.1-0.1-0.2-0.1-0.3-0.1c-0.3,0-0.5,0.2-0.5,0.4c0,0.2,0.2,0.4,0.4,0.4c0.1,0.1,0.2,0.1,0.3,0
			c0.7-0.4,1.1-1.2,0.9-2.1c-0.2-1-1-1.7-2-1.8c-1.6-0.2-3,0.9-3.3,2.6c0,0.2,0,0.4,0,0.5H19.8c0-0.2,0-0.4,0-0.5
			c-0.3-1.7-1.7-2.8-3.3-2.6c-1,0.1-1.8,0.9-2,1.8c-0.2,0.9,0.2,1.7,0.9,2.1c0.1,0.1,0.2,0,0.3,0c0.2,0,0.4-0.2,0.4-0.4
			c0-0.2-0.2-0.4-0.5-0.4c-0.1,0-0.2,0-0.3,0.1C15,5.3,15,4.8,15.1,4.5c0.1-0.6,0.6-1.3,1.5-1.4C18,2.9,19,4,19.2,5.2
			c0.2,1.5-0.7,3.5-4.1,4.1C13.4,9.6,11.4,9,10.1,8C9.5,7.5,8.9,6.6,9,5.3c0-0.4,0.3-0.8,0.6-1.1c0.4-0.3,0.8-0.4,1.3-0.4
			c0.6,0.1,1.1,0.6,1.1,1.2c0,0.4-0.4,0.7-0.8,0.7c-0.1,0-0.2,0-0.3-0.1C10.9,5.5,11,5.4,11,5.3c0-0.2-0.2-0.4-0.5-0.4
			c-0.1,0-0.3,0.1-0.4,0.2C10.1,5,10,5.1,10,5.2c0,0.5,0.4,1,1,1c0.7,0.1,1.4-0.5,1.4-1.2c0.1-0.9-0.6-1.7-1.6-1.8
			c-0.6,0-1.2,0.1-1.7,0.5C8.7,4.2,8.4,4.7,8.4,5.3C8.3,6.5,8.8,7.5,9.7,8.4C10.9,9.4,12.5,9.9,14.2,9.9z M185.8,56
			c-0.3,0-0.7,0-1,0.1c-3,0.5-4.3,2-4.6,3.6H19.5c-0.3-1.6-1.6-3.2-4.6-3.6c-0.3-0.1-0.7-0.1-1-0.1c-1.6,0-3.3,0.6-4.4,1.6
			c-1,0.9-1.5,1.9-1.4,3.1c0.1,0.6,0.3,1.1,0.8,1.5c0.5,0.4,1.1,0.6,1.7,0.5c1-0.1,1.7-0.9,1.6-1.8c-0.1-0.7-0.7-1.2-1.4-1.2
			c-0.6,0-1,0.5-1,1c0,0.1,0.1,0.2,0.2,0.2c0.1,0.1,0.2,0.2,0.4,0.2c0.3,0,0.5-0.2,0.5-0.4c0-0.1-0.1-0.3-0.2-0.3
			c0.1,0,0.2-0.1,0.3-0.1c0.4,0,0.8,0.3,0.8,0.7c0.1,0.6-0.4,1.2-1.1,1.2c-0.5,0-0.9-0.1-1.3-0.4c-0.4-0.3-0.6-0.7-0.6-1.1
			c-0.1-1.2,0.6-2.1,1.2-2.6c1.2-1.1,3.2-1.6,4.9-1.3c3.4,0.6,4.4,2.6,4.1,4.1c-0.2,1.2-1.2,2.3-2.6,2.1c-0.9-0.1-1.4-0.8-1.5-1.4
			c-0.1-0.4,0-0.8,0.3-1.2c0.1,0.1,0.2,0.1,0.3,0.1c0.3,0,0.5-0.2,0.5-0.4c0-0.2-0.2-0.4-0.4-0.4c-0.1-0.1-0.2-0.1-0.3,0
			c-0.7,0.4-1.1,1.2-0.9,2.1c0.2,1,1,1.7,2,1.8c1.6,0.2,3-0.9,3.3-2.6c0-0.2,0-0.4,0-0.5h160.6c0,0.2,0,0.4,0,0.5
			c0.3,1.7,1.7,2.8,3.3,2.6c1-0.1,1.8-0.9,2-1.8c0.2-0.9-0.2-1.7-0.9-2.1c-0.1-0.1-0.2,0-0.3,0c-0.2,0-0.4,0.2-0.4,0.4
			c0,0.2,0.2,0.4,0.5,0.4c0.1,0,0.2,0,0.3-0.1c0.3,0.3,0.3,0.8,0.3,1.2c-0.1,0.6-0.6,1.3-1.5,1.4c-1.4,0.2-2.4-1-2.6-2.1
			c-0.2-1.5,0.7-3.5,4.1-4.1c1.7-0.3,3.7,0.3,4.9,1.3c0.6,0.5,1.3,1.4,1.2,2.6c0,0.4-0.3,0.8-0.6,1.1c-0.4,0.3-0.8,0.4-1.3,0.4
			c-0.6-0.1-1.1-0.6-1.1-1.2c0-0.4,0.4-0.7,0.8-0.7c0.1,0,0.2,0,0.3,0.1c-0.1,0.1-0.2,0.2-0.2,0.3c0,0.2,0.2,0.4,0.5,0.4
			c0.1,0,0.3-0.1,0.4-0.2c0.1,0,0.2-0.1,0.2-0.2c0-0.5-0.4-1-1-1c-0.7-0.1-1.4,0.5-1.4,1.2c-0.1,0.9,0.6,1.7,1.6,1.8
			c0.6,0,1.2-0.1,1.7-0.5c0.5-0.4,0.8-0.9,0.8-1.5c0.1-1.2-0.4-2.2-1.4-3.1C189.1,56.6,187.5,56,185.8,56z"/>
	</g>
</g>
</svg>
