<?xml version="1.0" encoding="utf-8"?>
<!-- Generator: Adobe Illustrator 27.6.1, SVG Export Plug-In . SVG Version: 6.00 Build 0)  -->
<svg version="1.1" id="圖層_1" xmlns="http://www.w3.org/2000/svg" xmlns:xlink="http://www.w3.org/1999/xlink" x="0px" y="0px"
	 width="230px" height="50.5px" viewBox="0 0 230 50.5" style="enable-background:new 0 0 230 50.5;" xml:space="preserve">
<style type="text/css">
	.st0{fill:#FFFFFF;}
</style>
<g>
	<path class="st0" d="M49.4,1.2C48.6,0.5,47.7,0,46.6,0s-2.1,0.4-2.8,1.2S42.6,2.9,42.6,4S43,6,43.8,6.8S45.5,8,46.6,8
		s2.1-0.4,2.8-1.2C50.1,6,50.6,5.1,50.6,4S50.2,1.9,49.4,1.2z"/>
	<path class="st0" d="M50.2,36.7v-25h-7v25.2c0,0.8,0.4,1.6,1.1,2.2c0.6,0.6,1.6,1,2.5,1s1.8-0.4,2.5-1
		C49.8,38.4,50.2,37.6,50.2,36.7z"/>
	<path class="st0" d="M85.3,14.3l-1.1-3.5c-0.4-1.5-1.3-2.2-2.7-2.2c-0.4,0-1,0.1-1.6,0.4L49.4,19.4c-1.1,0.4-1.8,1-2.1,1.6
		c-0.4,0.6-0.4,1.5,0.1,2.4l1.2,3.4c2.8,7.1,7.4,10.2,10.9,11.6c2.3,1,5,1.3,7.5,1.3l0,0c2.2,0,4.4-0.4,6.2-1.1
		C83.2,35.4,88.6,24.6,85.3,14.3z M66.9,33.3c-1.7,0-3.3-0.4-4.7-0.8c-2.3-1-5.4-2.9-7-7.6L55,24.4l23.7-8.2l0.1,0.4
		c0.4,1,1,4.1,0.1,7.6c-1.1,4-3.6,6.9-7.7,8.3C69.7,33,68.4,33.3,66.9,33.3z"/>
	<path class="st0" d="M19.2,5.6c0.5-0.7,0.7-1.7,0.5-2.8C19.4,1.6,18.4,0,16.2,0C8.5,0,4.2,4,3.9,11.5v0.8l-1.1,0.1
		c-0.7,0.1-1.5,0.4-2.1,1.1C0.4,14.3,0,15.1,0,16.1c0,1,0.4,1.8,1,2.5c0.5,0.6,1.2,1,2.1,1l1.2,0.1v20h6.9v-20h5
		c0.8,0,1.6-0.4,2.2-1.1c0.6-0.6,1-1.6,1-2.5c0-1-0.4-1.8-1-2.5c-0.6-0.6-1.3-1.1-2.2-1.1H11v-1c0-2.7,0.8-4.2,5-4.5
		C17.4,7,18.6,6.5,19.2,5.6z"/>
	<path class="st0" d="M134.8,11.5c-0.5-0.2-1.1-0.4-1.7-0.4c-1,0-2.2,0.4-2.9,1.9l-5.8,13.6l-5.6-13.6c-0.7-1.7-2.3-1.9-3-1.9
		c-0.5,0-1.1,0.1-1.5,0.4c-0.5,0.2-1.6,1-2.1,2.1c-0.4,0.7-0.4,1.5,0,2.2l8.5,20l-6.2,14.8h7.6l14.5-34.6c0.4-0.7,0.4-1.7,0-2.4
		C136.6,12.8,136,12,134.8,11.5z"/>
	<path class="st0" d="M98,11.3c-3.9,0-7.3,1.3-10,4.1c-2.8,2.8-4.1,6.2-4.1,10s1.3,7.3,4.1,10c2.8,2.8,6.2,4.1,10,4.1
		c3.5,0,5.6-1.2,6.5-1.8l0.5-0.4l0.1,2.3h6.9V25.3c0-3.9-1.3-7.3-4.1-10C105.1,12.6,101.9,11.3,98,11.3z M104.5,28.1
		c-0.4,0.8-0.8,1.6-1.5,2.2c-0.6,0.6-1.3,1.2-2.2,1.6c-0.8,0.4-1.8,0.5-2.8,0.5c-1.1,0-1.9-0.2-2.8-0.5c-0.8-0.4-1.6-0.8-2.2-1.5
		c-0.6-0.6-1.2-1.3-1.5-2.2c-0.4-0.8-0.5-1.8-0.5-2.8s0.2-1.9,0.5-2.8c0.4-0.8,0.8-1.6,1.5-2.2c0.6-0.6,1.3-1.2,2.2-1.5
		c0.8-0.4,1.8-0.5,2.8-0.5c1,0,1.9,0.2,2.8,0.5c0.8,0.4,1.6,1,2.2,1.6c0.6,0.6,1.2,1.3,1.5,2.2c0.4,0.8,0.5,1.8,0.5,2.8
		C105,26.4,104.9,27.2,104.5,28.1z"/>
	<path class="st0" d="M41,14.3c-0.2-1.8-1.8-2.9-4.1-2.9h-0.6c-4.2,0-6.9,2.5-7,2.5l-0.5,0.5v-2.8h-6.9v25.2c0,0.8,0.4,1.6,1.1,2.2
		c0.6,0.6,1.6,1,2.5,1s1.8-0.4,2.5-1c0.6-0.6,1.1-1.3,1.1-2.2V25.5c0-4.2,4.6-6.5,6.8-6.9c0.4-0.1,0.8-0.1,1.2-0.1
		c0.4,0,0.8,0,1.2-0.1C39.3,18.1,41.4,16.8,41,14.3z"/>
</g>
<g>
	<path class="st0" d="M151.6,31.2c-0.4,2.4-1.2,5.1-2.5,8.2l-3.1-1.1c1.2-3.3,2.1-6,2.4-8L151.6,31.2z M157.2,29h-9.8
		c-0.4,0-0.4-0.2-0.4-0.4V1.8c0-0.4,0.2-0.4,0.4-0.4h9.8c0.4,0,0.5,0.2,0.5,0.4v26.7C157.6,28.9,157.5,29,157.2,29z M154.4,9.4V4.7
		l-0.2-0.1h-3.9l-0.1,0.1v4.7H154.4z M154.4,17.7v-4.8h-4.2v4.8H154.4z M150.3,20.9v4.6l0.1,0.2h3.9c0.1,0,0.2,0,0.2-0.2v-4.6H150.3
		z M156,30.6c1,1.8,1.8,4,2.4,6.7l-3,1c-0.7-2.8-1.6-5-2.4-6.5L156,30.6z M164.3,39.4H161v-5.8h-2.2v-2.9h2.2v-11
		c0-0.5,0.2-0.7,0.7-0.7h8.7v-2.4h-11.3v-2.9h6.2v-2.4h-4.7V8.1h4.7V5.9h-5.9V3h5.9V0.4h3.3v2.8h7v-3h3.3V3h5.7v2.9h-5.6v2.2h4.8V11
		h-4.8v2.4h6.3v2.9h-11.6v2.4h8.8c0.5,0,0.8,0.2,0.8,0.7v11h2.1v2.9h-2.1v2.2c0,1.3-0.5,2.3-1.6,3c-1.3,0.8-3.6,1-7,0.4l-0.1-3.6
		c2.4,0.6,4,0.7,4.6,0.4c0.6-0.4,0.8-0.8,0.8-1.5v-0.8h-15.8L164.3,39.4L164.3,39.4z M170.6,21.7h-6c-0.2,0-0.2,0.1-0.2,0.2v2.9h6.2
		v-3.1H170.6z M170.6,30.6v-2.8h-6.2v2.9h6.2V30.6z M175.8,5.9h-7v2.2h7V5.9z M175.8,13.4V11h-7v2.4H175.8z M173.9,24.8h6.3v-2.9
		c0-0.2-0.1-0.2-0.2-0.2h-6.2v3.1H173.9z M180.2,30.6v-2.8h-6.3v2.9h6.3V30.6z"/>
	<path class="st0" d="M198.3,11.6h-2.9c-0.5,3.6-1,6.2-1.3,7.5l-3.6-0.5c1.3-4.4,2.1-9.3,2.1-14.8V1.6h3.5v2.2L195.8,8h2.4V0.1h3.6
		V8h3.6v3.6h-3.6v10.3l3.4-2.1l2.1,2.9c-1.6,1.1-3.4,2.1-5.3,3v13.7h-3.6v-12l-5.7,2.4l-2.1-3.3c3-1.2,5.7-2.1,7.6-2.9L198.3,11.6
		L198.3,11.6z M217.8,8.8l-0.6,5c-1.2,5.7-4.7,11.5-10.4,17.4l-3.1-2.1c4-4,6.9-7.7,8.5-11c1-2.2,1.8-5.3,2.2-9.4h-3
		c-1.2,3.6-2.7,6.7-4.2,8.8l-3.5-1.3c3.3-5.1,5.3-10.4,6-16l3.6,0.4l-0.8,4.5h16.3l0.7,0.1c0.4,0.2,0.6,0.8,0.6,1.9l-0.2,16.6
		c-0.2,8-1.7,12.9-4.5,14.9c-1.6,1.2-4.7,1.1-9.4-0.2l-0.1-4.2c3.9,1.3,6.4,1.6,7.4,0.8c0.7-0.5,1.3-1.6,2.1-3.3
		c0.5-1.7,0.8-4.6,1-8.6c0.4-9.1,0.4-13.8,0-14.3c-0.1-0.2-0.2-0.4-0.4-0.4h-1.7c-0.1,5.7-1.3,11.4-3.8,17.2
		c-2.4,4.8-5.9,9-10.5,12.2l-2.9-2.7c8.6-5.1,13.3-14,13.6-26.7h-2.7V8.8z"/>
</g>
</svg>
