<?xml version="1.0" encoding="utf-8" ?>
<svg xmlns="http://www.w3.org/2000/svg" xmlns:xlink="http://www.w3.org/1999/xlink" width="1024" height="1024">
	<path transform="scale(2 2)" d="M150.251 203.168C147.775 196.361 146.57 193.34 154.05 190.656C163.43 187.29 173.025 184.415 182.454 181.168L335.009 129.84C341.914 127.546 349.035 124.285 356.269 123.332C367.072 122.266 369.48 132.218 371.915 140.204L375.977 153.287C381.225 169.898 386.7 186.474 391.664 203.168C402.05 203.205 416.3 201.152 419.418 214.454C420.544 219.26 420.543 262.897 419.074 264.67C416.779 267.442 408.688 266.014 405.268 266.397C368.522 270.504 370.192 325.669 407.498 327.22C419.7 327.728 420.161 324.855 419.993 337.617L419.945 348.366C419.928 356.303 420.288 364.224 420.307 372.14C420.341 385.877 410.056 388.776 399.229 388.781L197.375 388.774L115.655 388.794C102.756 388.802 92.5316 386.227 92.4715 370.896L92.4828 232.133C92.457 203.795 94.641 203.164 120.22 203.16L150.251 203.168ZM356.269 133.249C345.073 137.219 332.82 140.721 321.904 144.951C325.925 151.517 331.513 156.408 338.573 159.504C348.416 163.598 358.109 163.776 368.568 163.723C367.14 158.319 365.158 153.047 363.504 147.706C362.175 143.411 361.171 133.184 356.269 133.249ZM311.605 148.263C293.089 154.06 274.74 160.591 256.371 166.842L159.763 199.439C160.072 200.683 160.37 201.929 160.698 203.168L229.875 203.168L380.877 203.168C377.759 193.393 374.987 183.521 371.875 173.748C352.173 173.773 334.982 173.576 319.937 158.674C317.018 155.782 313.615 152.309 312.146 148.423C311.967 148.363 311.793 148.267 311.605 148.263ZM106.945 213.264C103.134 214.276 102.678 217.082 102.569 220.56C102.208 232.175 102.543 243.899 102.545 255.524L102.549 356.123C102.551 361.271 100.305 375.619 106.087 378.231C108.622 379.376 138.281 378.781 143.561 378.775C143.869 370.088 154.116 369.641 154.262 378.775L394.892 378.779C401.628 378.777 410.652 380.372 410.285 370.531C409.933 361.068 410.001 351.624 410.004 342.155C410.016 340.585 410.107 338.967 410.004 337.403C372.657 337.256 354.095 293.448 380.639 267.298C388.395 259.657 399.279 256.225 410.004 256.318L410.014 231.021C410.01 208.841 409.014 213.264 387.851 213.262L154.262 213.264C152.882 220.915 144.324 221.976 143.561 213.264C131.366 213.263 119.136 213.059 106.945 213.264Z"/>
	<path transform="scale(2 2)" d="M150.251 243.482C141.318 244.091 140.575 230.807 147.506 227.529C156.144 226.708 156.952 240.456 150.251 243.482Z"/>
	<path transform="scale(2 2)" d="M217.882 248.492C214.146 248.787 185.662 248.74 183.484 248.079C178.404 246.536 179.399 240.17 184.29 238.306C189.972 237.849 196.02 238.3 201.748 238.32C205.983 238.335 224.228 235.62 221.562 244.661C221.029 246.47 219.469 247.645 217.882 248.492Z"/>
	<path transform="scale(2 2)" d="M311.605 248.492C296.388 248.743 281.125 248.483 265.904 248.486L247.561 248.504C244.147 248.508 236.966 249.577 234.044 247.427C229.605 244.16 232.224 239.023 237.122 238.306C245.314 238.171 310.934 237.384 314.071 239.322C318.764 242.223 316.168 247.634 311.605 248.492Z"/>
	<path transform="scale(2 2)" d="M150.251 267.819C141.947 268.956 140.612 255.386 147.506 252.037C155.881 251.302 157.16 264.964 150.251 267.819Z"/>
	<path transform="scale(2 2)" d="M150.251 291.79C141.641 292.477 140.573 278.613 147.506 276.058C156.292 275.243 157.092 289.136 150.251 291.79Z"/>
	<path transform="scale(2 2)" d="M143.561 312.468C143.356 307.018 142.316 301.927 148.405 299.758C156.486 299.362 156.725 313.671 150.251 315.76C147.26 315.717 145.479 314.915 143.561 312.468Z"/>
	<path transform="scale(2 2)" d="M150.251 339.83C142.081 341.002 140.589 327.054 147.506 324.059C156.531 322.988 156.893 336.959 150.251 339.83Z"/>
	<path transform="scale(2 2)" d="M217.882 353.225C212.386 353.492 206.749 353.19 201.235 353.197C196.92 353.202 182.343 355.371 180.895 349.501C180.056 346.097 182.276 343.692 185.426 343.002C190.405 342.741 195.496 343.026 200.489 343.019C204.8 343.012 219.866 341.072 221.807 346.453C222.743 349.051 220.173 352.346 217.882 353.225Z"/>
	<path transform="scale(2 2)" d="M312.276 353.225L246.952 353.239C243.958 353.254 240.816 353.443 237.842 353.158C229.708 352.382 229.547 344.24 237.122 343.002L301.263 343.024C305.043 343.027 314.962 341.667 316.445 346.348C317.437 349.483 315.191 352.366 312.276 353.225Z"/>
	<path transform="scale(2 2)" d="M150.251 364.266C141.988 365.612 140.834 351.152 147.506 348.043C155.395 347.008 154.907 356.033 154.262 361.472C153.039 362.855 151.985 363.617 150.251 364.266Z"/>
</svg>
